<?xml version="1.0" encoding="utf-8"?>
<!-- Generator: Adobe Illustrator 28.0.0, SVG Export Plug-In . SVG Version: 6.00 Build 0)  -->
<svg version="1.1" xmlns="http://www.w3.org/2000/svg" xmlns:xlink="http://www.w3.org/1999/xlink" x="0px" y="0px"
	 viewBox="0 0 226 221" style="enable-background:new 0 0 226 221;" xml:space="preserve">
<style type="text/css">
	.st0{display:none;}
	.st1{fill:none;stroke:#D95970;stroke-width:20;stroke-miterlimit:10;}
	.st2{stroke:#D95970;stroke-width:20;stroke-miterlimit:10;}
	.st3{fill:#D95970;}
</style>
<g id="Laag_1" class="st0">
</g>
<g id="Laag_2">
</g>
<g id="Laag_3">
	<g>
		<path class="st3" d="M207.81,67.58H18.19c-9.43,0-17.08-7.65-17.08-17.08v0c0-9.43,7.65-17.08,17.08-17.08h189.63
			c9.43,0,17.08,7.65,17.08,17.08v0C224.89,59.93,217.25,67.58,207.81,67.58z"/>
		<path class="st3" d="M207.81,127.58H18.19c-9.43,0-17.08-7.65-17.08-17.08v0c0-9.43,7.65-17.08,17.08-17.08h189.63
			c9.43,0,17.08,7.65,17.08,17.08v0C224.89,119.93,217.25,127.58,207.81,127.58z"/>
		<path class="st3" d="M207.81,187.58H18.19c-9.43,0-17.08-7.65-17.08-17.08v0c0-9.43,7.65-17.08,17.08-17.08h189.63
			c9.43,0,17.08,7.65,17.08,17.08v0C224.89,179.93,217.25,187.58,207.81,187.58z"/>
	</g>
</g>
</svg>
